<?xml version="1.0" standalone="no"?>
<!DOCTYPE svg PUBLIC "-//W3C//DTD SVG 1.0//EN" "http://www.w3.org/TR/2001/REC-SVG-20010904/DTD/svg10.dtd">
<svg xmlns="http://www.w3.org/2000/svg" xmlns:xlink="http://www.w3.org/1999/xlink" id="body_1" width="394" height="633">

<g transform="matrix(0.10000001 0 0 0.10000001 0 0)">
	<g transform="matrix(1 0 0 1 0 0)">
		<g>
            <path d="M2045 5919C 1992 5888 1990 5882 1990 5637L1990 5637L1990 5408L2019 5379C 2055 5343 2094 5341 2135 5374L2135 5374L2165 5398L2168 5633C 2171 5866 2171 5868 2148 5894C 2122 5924 2074 5935 2045 5919z" stroke="none" fill="#000000" fill-rule="nonzero" />
            <path d="M928 5630C 903 5604 899 5593 903 5567C 910 5525 1102 5192 1135 5163C 1174 5129 1222 5132 1254 5171C 1300 5226 1303 5219 1104 5556C 1075 5607 1043 5650 1034 5654C 997 5668 958 5660 928 5630z" stroke="none" fill="#000000" fill-rule="nonzero" />
            <path d="M3123 5645C 3111 5637 3059 5557 3007 5468C 2880 5249 2878 5244 2885 5209C 2897 5154 2969 5123 3020 5150C 3035 5158 3188 5409 3244 5517C 3268 5564 3264 5597 3231 5631C 3198 5664 3157 5669 3123 5645z" stroke="none" fill="#000000" fill-rule="nonzero" />
            <path d="M2016 5099L1990 5068L1990 4843L1990 4618L2019 4589C 2057 4551 2110 4549 2145 4585L2145 4585L2170 4609L2170 4845L2170 5081L2145 5105C 2108 5143 2050 5140 2016 5099z" stroke="none" fill="#000000" fill-rule="nonzero" />
            <path d="M2754 4972C 2721 4967 2701 4939 2591 4748C 2476 4547 2469 4520 2521 4476C 2559 4444 2601 4443 2633 4473C 2647 4485 2703 4575 2759 4672C 2839 4812 2860 4858 2860 4888C 2860 4945 2813 4982 2754 4972z" stroke="none" fill="#000000" fill-rule="nonzero" />
            <path d="M1325 4945C 1282 4902 1290 4875 1410 4665C 1536 4445 1556 4427 1629 4465C 1668 4484 1687 4532 1671 4568C 1647 4621 1468 4928 1449 4949C 1420 4980 1357 4978 1325 4945z" stroke="none" fill="#000000" fill-rule="nonzero" />
            <path d="M1698 3999L1701 3757L1550 3606L1400 3454L1400 3007L1400 2560L1313 2559C 1264 2559 1149 2559 1056 2560L1056 2560L887 2561L603 2278C 448 2122 320 1990 320 1985C 320 1979 473 1822 660 1635L660 1635L1000 1295L1192 1487C 1297 1593 1387 1677 1391 1674C 1396 1671 1400 1516 1400 1330L1400 1330L1400 991L1498 988L1595 985L1595 690L1595 395L2080 395L2565 395L2570 690L2575 985L2672 988L2769 991L2770 2221L2770 3451L2620 3604L2470 3757L2470 3998L2470 4240L2083 4240L1695 4240L1698 3999zM2187 4060L2291 4060L2288 3903L2285 3746L2085 3749C 1975 3750 1881 3755 1877 3759C 1873 3763 1871 3831 1872 3911L1872 3911L1875 4055L1935 4061C 1968 4065 2015 4066 2039 4064C 2063 4062 2130 4060 2187 4060zM2495 3470L2590 3375L2590 2278C 2590 1675 2586 1179 2582 1176C 2574 1172 2085 1168 1713 1169L1713 1169L1580 1170L1580 2278L1580 3385L1668 3472L1755 3560L1930 3562C 2026 3564 2171 3565 2252 3565L2252 3565L2400 3565L2495 3470zM1398 2165L1400 1955L1198 1752L996 1549L783 1762C 666 1879 571 1978 572 1982C 574 1987 663 2078 770 2185L770 2185L964 2380L1180 2378L1395 2375L1398 2165zM2386 795C 2386 691 2385 597 2382 588C 2379 571 2356 570 2079 570L2079 570L1780 570L1780 780L1780 990L2083 988L2385 985L2386 795z" stroke="none" fill="#000000" fill-rule="nonzero" />
		</g>
	</g>
</g>
</svg>