<svg class="img-fluid" id="outputsvg"
    xmlns="http://www.w3.org/2000/svg" style="transform: matrix(1.44804, 0, 0, 1.44804, -26.1872, -6.2944); transform-origin: 50% 50%; cursor: move; max-height: none; transition: none 0s ease 0s;" width="394" height="633" viewBox="0 0 3940 6330">
    <g id="l6zfYWgcFuhYVu3BuU77PiE" fill="rgb(0,0,0)" style="transform: none;">
        <g>
            <path id="p13gD0Q4H0" d="M2045 5919 c-53 -31 -55 -37 -55 -282 l0 -229 29 -29 c36 -36 75 -38 116 -5 l30 24 3 235 c3 233 3 235 -20 261 -26 30 -74 41 -103 25z"></path>
            <path id="pFsqDRuDA" d="M928 5630 c-25 -26 -29 -37 -25 -63 7 -42 199 -375 232 -404 39 -34 87 -31 119 8 46 55 49 48 -150 385 -29 51 -61 94 -70 98 -37 14 -76 6 -106 -24z"></path>
            <path id="pLMQmAIis" d="M3123 5645 c-12 -8 -64 -88 -116 -177 -127 -219 -129 -224 -122 -259 12 -55 84 -86 135 -59 15 8 168 259 224 367 24 47 20 80 -13 114 -33 33 -74 38 -108 14z"></path>
            <path id="pTosN4yQi" d="M2016 5099 l-26 -31 0 -225 0 -225 29 -29 c38 -38 91 -40 126 -4 l25 24 0 236 0 236 -25 24 c-37 38 -95 35 -129 -6z"></path>
            <path id="pa9t8eWm3" d="M2754 4972 c-33 -5 -53 -33 -163 -224 -115 -201 -122 -228 -70 -272 38 -32 80 -33 112 -3 14 12 70 102 126 199 80 140 101 186 101 216 0 57 -47 94 -106 84z"></path>
            <path id="p1BH7exbDg" d="M1325 4945 c-43 -43 -35 -70 85 -280 126 -220 146 -238 219 -200 39 19 58 67 42 103 -24 53 -203 360 -222 381 -29 31 -92 29 -124 -4z"></path>
            <path id="p1BhtbsPT2" d="M1698 3999 l3 -242 -151 -151 -150 -152 0 -447 0 -447 -87 -1 c-49 0 -164 0 -257 1 l-169 1 -284 -283 c-155 -156 -283 -288 -283 -293 0 -6 153 -163 340 -350 l340 -340 192 192 c105 106 195 190 199 187 5 -3 9 -158 9 -344 l0 -339 98 -3 97 -3 0 -295 0 -295 485 0 485 0 5 295 5 295 97 3 97 3 1 1230 0 1230 -150 153 -150 153 0 241 0 242 -387 0 -388 0 3 -241z m489 61 l104 0 -3 -157 -3 -157 -200 3 c-110 1 -204 6 -208 10 -4 4 -6 72 -5 152 l3 144 60 6 c33 4 80 5 104 3 24 -2 91 -4 148 -4z m308 -590 l95 -95 0 -1097 c0 -603 -4 -1099 -8 -1102 -8 -4 -497 -8 -869 -7 l-133 1 0 1108 0 1107 88 87 87 88 175 2 c96 2 241 3 322 3 l148 0 95 -95z m-1097 -1305 l2 -210 -202 -203 -202 -203 -213 213 c-117 117 -212 216 -211 220 2 5 91 96 198 203 l194 195 216 -2 215 -3 3 -210z m988 -1370 c0 -104 -1 -198 -4 -207 -3 -17 -26 -18 -303 -18 l-299 0 0 210 0 210 303 -2 302 -3 1 -190z"></path>
        </g>
    </g>
</svg>